<svg xmlns="http://www.w3.org/2000/svg" width="512" height="512" viewBox="0 0 512 512">
  <defs>
    <linearGradient id="bg" x1="0" y1="0" x2="1" y2="1">
      <stop offset="0" stop-color="#4a1229"/>
      <stop offset="0.6" stop-color="#6b2144"/>
      <stop offset="1" stop-color="#8a3a5f"/>
    </linearGradient>
    <radialGradient id="glow" cx="0.5" cy="0.42" r="0.6">
      <stop offset="0" stop-color="#f0b64d"/>
      <stop offset="1" stop-color="#e59a3a"/>
    </radialGradient>
  </defs>
  <rect width="512" height="512" rx="112" fill="url(#bg)"/>
  <g transform="translate(256 236)">
    <g fill="url(#glow)">
      <ellipse cx="0" cy="-70" rx="34" ry="60"/>
      <ellipse cx="0" cy="70" rx="34" ry="60"/>
      <ellipse cx="-70" cy="0" rx="60" ry="34"/>
      <ellipse cx="70" cy="0" rx="60" ry="34"/>
      <ellipse cx="-50" cy="-50" rx="30" ry="52" transform="rotate(45 -50 -50)"/>
      <ellipse cx="50" cy="-50" rx="30" ry="52" transform="rotate(-45 50 -50)"/>
      <ellipse cx="-50" cy="50" rx="30" ry="52" transform="rotate(-45 -50 50)"/>
      <ellipse cx="50" cy="50" rx="30" ry="52" transform="rotate(45 50 50)"/>
    </g>
    <circle cx="0" cy="0" r="34" fill="#fff"/>
    <circle cx="0" cy="0" r="20" fill="#6b2144"/>
  </g>
  <text x="256" y="430" text-anchor="middle" font-family="Georgia, 'Times New Roman', serif" font-size="66" font-weight="700" fill="#fff" letter-spacing="2">Florescer</text>
</svg>
